HIERARCHY
ROOT Hips
{
	OFFSET 0.000000 0.000000 0.000000 
	CHANNELS 6 Xposition Yposition Zposition Yrotation Zrotation Xrotation 
	JOINT Lumbar
	{
		OFFSET 0.000000 0.000000 0.000000 
		CHANNELS 3 Zrotation Xrotation Yrotation
		JOINT Neck
		{
			OFFSET 0.000000 0.445665 0.000000 
			CHANNELS 3 Zrotation Xrotation Yrotation
			End Site
			{
				OFFSET 0.000000 0.227535 0.000000 
			}
		}
		JOINT RightShoulder
		{
			OFFSET 0.019635 0.377685 0.194865 
			CHANNELS 3 Zrotation Xrotation Yrotation
			JOINT RightElbow
			{
				OFFSET 0.000000 -0.243375 0.000000 
				CHANNELS 2 Zrotation Yrotation
				JOINT RightWrist
				{
					OFFSET 0.000000 -0.264825 0.000000 
					CHANNELS 2 Zrotation Xrotation
					End Site
					{
						OFFSET 0.006600 -0.176220 0.000990 
					}
				}
			}
		}
		JOINT LeftShoulder
		{
			OFFSET 0.019635 0.377685 -0.194865 
			CHANNELS 3 Zrotation Xrotation Yrotation
			JOINT LeftElbow
			{
				OFFSET 0.000000 -0.243375 0.000000 
				CHANNELS 2 Zrotation Yrotation
				JOINT LeftWrist
				{
					OFFSET 0.000000 -0.264825 0.000000 
					CHANNELS 2 Zrotation Xrotation
					End Site
					{
						OFFSET 0.006600 -0.176220 -0.000990 
					}
				}
			}
		}
	}
	JOINT RightHip
	{
		OFFSET 0.052140 -0.069960 0.075570 
		CHANNELS 3 Zrotation Xrotation Yrotation
		JOINT RightKnee
		{
			OFFSET 0.000000 -0.402270 0.000000 
			CHANNELS 1 Zrotation
			JOINT RightAnkle
			{
				OFFSET 0.000000 -0.404085 0.000000 
				CHANNELS 3 Zrotation Xrotation Yrotation
				End Site
				{
					OFFSET 0.204105 -0.089430 0.008415 
				}
			}
		}
	}
	JOINT LeftHip
	{
		OFFSET 0.052140 -0.069960 -0.075570 
		CHANNELS 3 Zrotation Xrotation Yrotation
		JOINT LeftKnee
		{
			OFFSET 0.000000 -0.402270 0.000000 
			CHANNELS 1 Zrotation
			JOINT LeftAnkle
			{
				OFFSET 0.000000 -0.404085 0.000000 
				CHANNELS 3 Zrotation Xrotation Yrotation
				End Site
				{
					OFFSET 0.204105 -0.089430 -0.008415 
				}
			}
		}
	}
}
MOTION
Frames: 20
Frame Time: 0.02
0 0.95578 0 184.97299 0 -3.83156 2.70368 2.71294 -6.74612 -42.70094 2.98754 4.75378 -3.35235 -70.60044 -77.60359 22.41268 68.74371 -18.36594 -0.16144 1.64042 64.6885 73.69818 23.47564 -64.98482 -31.03343 0.7637 -4.48927 4.17756 0.26009 -6.03075 -1.21532 -3.11085 -7.45195 -2.11145 4.86224 -3.14996 -6.47861 2.58704 1.95702 2.32711
-7e-05 0.95577 -0 184.99951 0 -3.82988 2.70514 2.70956 -6.76635 -42.70219 3.00979 4.75 -3.35902 -70.61779 -77.60347 22.40182 68.69292 -18.35519 -0.17511 1.63166 64.66334 73.71765 23.47454 -64.98354 -31.03386 0.76519 -4.4951 4.17399 0.16773 -6.03593 -1.19965 -3.10243 -7.38286 -2.10846 4.86198 -3.17737 -6.48423 2.58788 2.0136 2.32448
-0.00014 0.95576 -0 185.02577 0 -3.82822 2.70654 2.70622 -6.78644 -42.70331 3.0319 4.74625 -3.36568 -70.63505 -77.60341 22.39103 68.64266 -18.34457 -0.18867 1.62271 64.63828 73.73702 23.47345 -64.98235 -31.0342 0.76666 -4.50089 4.17044 0.07617 -6.04106 -1.1841 -3.09407 -7.31433 -2.10552 4.86173 -3.20455 -6.48981 2.58871 2.06975 2.32191
-0.00021 0.95574 -0 185.05135 0 -3.82658 2.70779 2.70299 -6.80624 -42.70407 3.05372 4.74265 -3.37221 -70.65215 -77.6037 22.38039 68.5939 -18.33444 -0.202 1.61317 64.61325 73.75618 23.47241 -64.98153 -31.03421 0.7681 -4.50667 4.16701 -0.01301 -6.04593 -1.16882 -3.08595 -7.24758 -2.10267 4.86149 -3.23122 -6.49532 2.58951 2.12464 2.31943
-0.00028 0.95573 0 185.08064 0 -3.82478 2.70993 2.69914 -6.82765 -42.70693 3.07713 4.73831 -3.37924 -70.67018 -77.60227 22.36896 68.53702 -18.32176 -0.21661 1.60704 64.58793 73.77644 23.47114 -64.97877 -31.03598 0.76974 -4.5126 4.16302 -0.11468 -6.05208 -1.15206 -3.07666 -7.17164 -2.09926 4.86115 -3.26077 -6.50122 2.59043 2.18608 2.31632
-0.00035 0.95572 -0 185.10196 0 -3.82333 2.71013 2.6966 -6.84558 -42.70524 3.09713 4.73554 -3.38532 -70.68618 -77.60437 22.35918 68.49748 -18.31446 -0.22849 1.5935 64.56332 73.79438 23.47033 -64.9801 -31.034 0.77093 -4.51816 4.1602 -0.1899 -6.05559 -1.13844 -3.06981 -7.11505 -2.09706 4.86103 -3.28408 -6.50629 2.59114 2.23368 2.31462
-0.00039 0.95571 -2e-05 185.10191 0 -3.82289 2.70526 2.69774 -6.85451 -42.69133 3.10831 4.73708 -3.38795 -70.69724 -77.61781 22.3542 68.50543 -18.32272 -0.23297 1.55997 64.53958 73.80589 23.47103 -64.99348 -31.02168 0.77115 -4.52318 4.16079 -0.19086 -6.05113 -1.13347 -3.06997 -7.11381 -2.09805 4.86158 -3.29123 -6.50912 2.59085 2.24244 2.31629
-0.00043 0.95571 -3e-05 185.09372 0 -3.82278 2.69835 2.70017 -6.8598 -42.67274 3.11602 4.74017 -3.3898 -70.70617 -77.6346 22.35085 68.53092 -18.33631 -0.23468 1.51883 64.51673 73.81509 23.47216 -65.01091 -31.00561 0.77088 -4.52776 4.16253 -0.16535 -6.04412 -1.13166 -3.07253 -7.13178 -2.10026 4.86233 -3.29193 -6.51113 2.59039 2.23734 2.31945
-0.00047 0.9557 -5e-05 185.08879 0 -3.8225 2.69218 2.702 -6.86641 -42.656 3.12489 4.7426 -3.39249 -70.71561 -77.64879 22.34658 68.54874 -18.347 -0.23756 1.48081 64.4942 73.82533 23.4729 -65.02601 -30.99116 0.77063 -4.53224 4.16363 -0.15276 -6.03874 -1.12841 -3.07381 -7.13972 -2.10201 4.86296 -3.29483 -6.51348 2.59029 2.23899 2.32227
-0.00051 0.9557 -7e-05 185.08556 0 -3.82236 2.68687 2.70397 -6.87456 -42.64037 3.13531 4.745 -3.39299 -70.72685 -77.6673 22.34301 68.56552 -18.35965 -0.24077 1.4442 64.46867 73.83553 23.47437 -65.04307 -30.97683 0.77119 -4.53795 4.16523 -0.13641 -6.03144 -1.12518 -3.07592 -7.15308 -2.10342 4.86376 -3.30067 -6.51592 2.58909 2.23878 2.32371
-0.00054 0.95569 -9e-05 185.07704 0 -3.82196 2.67921 2.70585 -6.8785 -42.62138 3.14195 4.74766 -3.39803 -70.73401 -77.67788 22.33844 68.58831 -18.36955 -0.24268 1.40286 64.44952 73.84535 23.47453 -65.05712 -30.96164 0.77001 -4.54102 4.16603 -0.12161 -6.02748 -1.12265 -3.07687 -7.15979 -2.10574 4.86421 -3.29905 -6.51806 2.59005 2.2391 2.32832
-0.00058 0.95569 -0.00013 185.05447 0 -3.82107 2.66599 2.70797 -6.87276 -42.59374 3.13655 4.75202 -3.41416 -70.72918 -77.66322 22.33026 68.62642 -18.36994 -0.24119 1.35003 64.44822 73.85408 23.46997 -65.06098 -30.94263 0.76347 -4.53658 4.16468 -0.11749 -6.03383 -1.12141 -3.074 -7.1429 -2.11102 4.86407 -3.27679 -6.51882 2.59779 2.24467 2.34192
-0.00061 0.95569 -0.00017 185.0271 0 -3.81984 2.65032 2.70982 -6.86278 -42.56294 3.12791 4.75638 -3.43507 -70.72062 -77.64077 22.3211 68.6695 -18.36747 -0.23854 1.29266 64.45314 73.86261 23.46423 -65.0619 -30.9233 0.75532 -4.52949 4.1624 -0.1158 -6.04362 -1.12075 -3.06989 -7.11881 -2.11699 4.86348 -3.24754 -6.51948 2.60758 2.2512 2.35856
-0.00064 0.95568 -0.00021 185.00291 0 -3.81855 2.63553 2.71127 -6.85396 -42.53396 3.12239 4.7598 -3.455 -70.71451 -77.62378 22.31272 68.70821 -18.36673 -0.23678 1.23771 64.45497 73.87163 23.4597 -65.06466 -30.9057 0.74832 -4.52391 4.16032 -0.11314 -6.05141 -1.11973 -3.06639 -7.09833 -2.12216 4.86284 -3.22259 -6.52066 2.61592 2.25703 2.3734
-0.00068 0.95568 -0.00026 184.97434 0 -3.81815 2.62188 2.71496 -6.84795 -42.50334 3.10985 4.7671 -3.47034 -70.70487 -77.5995 22.30303 68.75608 -18.36444 -0.23356 1.18141 64.45819 73.87891 23.45243 -65.06518 -30.88136 0.73951 -4.51729 4.15925 -0.10926 -6.06063 -1.1192 -3.06278 -7.07688 -2.12952 4.86335 -3.19277 -6.51972 2.6264 2.26345 2.39001
-0.00071 0.95568 -0.0003 184.95372 0 -3.81585 2.60504 2.71389 -6.83548 -42.47527 3.11115 4.76648 -3.49581 -70.70207 -77.58765 22.29578 68.7863 -18.36456 -0.23294 1.12639 64.45966 73.88978 23.45046 -65.06992 -30.8709 0.73413 -4.51189 4.15582 -0.10848 -6.06814 -1.11778 -3.05909 -7.05577 -2.13237 4.8613 -3.17141 -6.52329 2.63295 2.26907 2.40368
-0.0007 0.95568 -0.00032 184.95738 0 -3.80805 2.58229 2.69985 -6.80332 -42.4564 3.15197 4.74239 -3.55307 -70.71626 -77.61923 22.29561 68.76222 -18.37276 -0.24156 1.08096 64.4576 73.91109 23.46459 -65.08438 -30.90023 0.7384 -4.51333 4.14635 -0.11897 -6.06624 -1.1136 -3.05537 -7.03476 -2.12357 4.85279 -3.17614 -6.53834 2.62786 2.27225 2.4081
-0.00068 0.95569 -0.00033 184.96899 0 -3.79842 2.55599 2.681 -6.76534 -42.44 3.20675 4.71063 -3.61945 -70.73804 -77.66221 22.29788 68.72086 -18.3834 -0.25258 1.03612 64.45297 73.93612 23.48395 -65.10364 -30.94333 0.74623 -4.51559 4.13449 -0.13202 -6.06311 -1.10857 -3.05162 -7.01469 -2.11006 4.84166 -3.18944 -6.55807 2.61879 2.27467 2.40954
-0.00066 0.95569 -0.00034 184.97634 0 -3.7898 2.52987 2.66431 -6.732 -42.4215 3.25478 4.68339 -3.67838 -70.75817 -77.69521 22.29894 68.69027 -18.39238 -0.26126 0.98781 64.44774 73.95893 23.50003 -65.12241 -30.97924 0.75258 -4.51557 4.12354 -0.14186 -6.06322 -1.104 -3.04796 -6.99581 -2.098 4.83142 -3.19825 -6.5764 2.61173 2.27749 2.41258
-0.00067 0.95569 -0.00038 184.98649 0 -3.78034 2.50978 2.64774 -6.69023 -42.40682 3.30434 4.65174 -3.7514 -70.77042 -77.74823 22.30043 68.64782 -18.40336 -0.27488 0.95283 64.45045 73.98327 23.51952 -65.13397 -31.019 0.75826 -4.52335 4.11327 -0.16036 -6.05258 -1.09898 -3.04395 -6.97 -2.08872 4.82239 -3.20949 -6.59188 2.60391 2.28007 2.41464
